<svg version="1.1" viewBox="0.0 0.0 846.3517060367454 114.56167979002625" fill="none" stroke="none" stroke-linecap="square" stroke-miterlimit="10" xmlns:xlink="http://www.w3.org/1999/xlink" xmlns="http://www.w3.org/2000/svg"><clipPath id="p.0"><path d="m0 0l846.3517 0l0 114.561676l-846.3517 0l0 -114.561676z" clip-rule="nonzero"/></clipPath><g clip-path="url(#p.0)"><path fill="#000000" fill-opacity="0.0" d="m0 0l846.3517 0l0 114.561676l-846.3517 0z" fill-rule="evenodd"/><path fill="#000000" fill-opacity="0.0" d="m0.007874016 -0.19947506l846.3622 0l0 114.015755l-846.3622 0z" fill-rule="evenodd"/><path fill="#77f2cf" d="m30.601624 32.889652l0 38.48437q0 2.875 1.40625 4.125q1.40625 1.234375 3.875 1.234375q1.921875 0 3.3125 -0.4375q1.40625 -0.453125 2.53125 -1.328125l1.4375 8.40625q-2.0 1.4375 -5.046875 2.234375q-3.03125 0.796875 -6.234375 0.796875q-4.5625 0 -7.875 -1.28125q-3.3125 -1.28125 -5.125 -4.078125q-1.796875 -2.796875 -1.875 -7.4375l0 -36.95312l13.59375 -3.765625zm11.921875 12.71875l0 9.6875l-32.390625 0l0 -9.6875l32.390625 0zm25.36621 -0.796875q6.3125 0 11.078125 2.4375q4.765625 2.4375 7.4375 7.125q2.6875 4.671875 2.6875 11.234371q0 6.5625 -2.6875 11.25q-2.671875 4.671875 -7.4375 7.109375q-4.765625 2.4375 -11.078125 2.4375q-6.15625 0 -10.96875 -2.4375q-4.796875 -2.4375 -7.484375 -7.109375q-2.671875 -4.6875 -2.671875 -11.25q0 -6.562496 2.671875 -11.234371q2.6875 -4.6875 7.484375 -7.125q4.8125 -2.4375 10.96875 -2.4375zm0 9.671875q-2.328125 0 -4.015625 1.125q-1.671875 1.125 -2.546875 3.609375q-0.875 2.46875 -0.875 6.390621q0 3.921875 0.875 6.359375q0.875 2.4375 2.546875 3.609375q1.6875 1.15625 4.015625 1.15625q2.390625 0 4.078125 -1.15625q1.6875 -1.171875 2.5625 -3.609375q0.875 -2.4375 0.875 -6.359375q0 -3.9218712 -0.875 -6.390621q-0.875 -2.484375 -2.5625 -3.609375q-1.6875 -1.125 -4.078125 -1.125zm28.873077 47.92187l0 -56.79687l12.25 0l0.71875 14.484375l-1.609375 -1.6875q0.5625 -4.0 2.484375 -7.03125q1.921875 -3.046875 4.953125 -4.796875q3.046875 -1.765625 6.96875 -1.765625q4.953125 0 8.625 2.4375q3.6875 2.4375 5.734375 7.046875q2.046875 4.59375 2.046875 11.156246q0 6.5625 -2.09375 11.28125q-2.078125 4.71875 -5.796875 7.203125q-3.71875 2.46875 -8.671875 2.46875q-5.4375 0 -8.8125 -3.234375q-3.359375 -3.25 -4.46875 -8.203125l1.28125 -1.921875l0 29.359375l-13.609375 0zm20.96875 -26.0q3.515625 0 5.515625 -2.59375q2.0 -2.609375 2.0 -8.203125q0 -5.593746 -1.96875 -8.187496q-1.953125 -2.609375 -5.46875 -2.609375q-2.234375 0 -3.921875 1.25q-1.6875 1.234375 -2.609375 3.640625q-0.90625 2.390625 -0.90625 5.906246q0 3.359375 0.828125 5.796875q0.84375 2.4375 2.515625 3.71875q1.6875 1.28125 4.015625 1.28125z" fill-rule="nonzero"/><path fill="#434343" d="m149.17274 102.40527l0 -56.79687l3.59375 0l0.328125 11.125l-0.5625 -0.640625q1.03125 -3.4375 3.234375 -6.0q2.203125 -2.5625 5.390625 -3.921875q3.203125 -1.359375 6.96875 -1.359375q5.125 0 9.203125 2.484375q4.078125 2.46875 6.46875 7.109375q2.40625 4.640625 2.40625 11.203121q0 6.484375 -2.40625 11.171875q-2.390625 4.671875 -6.515625 7.15625q-4.109375 2.46875 -9.3125 2.46875q-5.515625 0 -9.609375 -2.921875q-4.078125 -2.921875 -5.671875 -7.875l0.484375 -0.71875l0 27.515625l-4.0 0zm18.3125 -19.515625q6.796875 0 10.75 -4.640625q3.96875 -4.640625 3.96875 -12.640625q0 -7.999996 -3.921875 -12.640621q-3.921875 -4.640625 -10.640625 -4.640625q-4.234375 0 -7.484375 2.125q-3.234375 2.109375 -5.109375 6.0q-1.875 3.875 -1.875 9.156246q0 5.203125 1.828125 9.125q1.84375 3.921875 5.078125 6.046875q3.25 2.109375 7.40625 2.109375zm30.247452 2.71875l0 -39.999996l3.359375 0l0.46875 8.3125q1.53125 -4.15625 4.890625 -6.625q3.359375 -2.484375 8.078125 -2.484375q1.59375 0 2.875 0.328125q1.28125 0.3125 2.15625 1.03125l-0.953125 3.515625q-0.875 -0.5625 -1.921875 -0.875q-1.03125 -0.328125 -3.125 -0.328125q-3.03125 0 -5.75 1.890625q-2.71875 1.875 -4.40625 5.203125q-1.671875 3.3125 -1.671875 7.625l0 22.406246l-4.0 0zm44.712463 -40.79687q5.609375 0 9.875 2.484375q4.28125 2.46875 6.71875 7.15625q2.453125 4.671875 2.453125 11.156246q0 6.484375 -2.453125 11.171875q-2.4375 4.671875 -6.71875 7.15625q-4.265625 2.46875 -9.875 2.46875q-5.59375 0 -9.875 -2.46875q-4.28125 -2.484375 -6.71875 -7.15625q-2.4375 -4.6875 -2.4375 -11.171875q0 -6.484371 2.4375 -11.156246q2.4375 -4.6875 6.71875 -7.15625q4.28125 -2.484375 9.875 -2.484375zm0 3.4375q-4.5625 0 -7.921875 2.078125q-3.359375 2.078125 -5.234375 5.96875q-1.875 3.875 -1.875 9.312496q0 5.359375 1.875 9.28125q1.875 3.921875 5.234375 6.0q3.359375 2.078125 7.921875 2.078125q4.5625 0 7.921875 -2.078125q3.359375 -2.078125 5.234375 -6.0q1.890625 -3.921875 1.890625 -9.28125q0 -5.437496 -1.890625 -9.312496q-1.875 -3.890625 -5.234375 -5.96875q-3.359375 -2.078125 -7.921875 -2.078125zm46.081207 38.156246q-5.203125 0 -9.359375 -2.46875q-4.15625 -2.484375 -6.515625 -7.15625q-2.359375 -4.6875 -2.359375 -11.171875q0 -6.640621 2.46875 -11.281246q2.484375 -4.640625 6.71875 -7.078125q4.25 -2.4375 9.453125 -2.4375q5.515625 0 9.46875 2.96875q3.96875 2.953125 5.328125 8.140625l-0.484375 0.40625l0 -29.125l4.0 0l0 58.406246l-3.59375 0l-0.25 -11.125l0.484375 -0.15625q-0.71875 3.84375 -2.921875 6.5625q-2.203125 2.71875 -5.4375 4.125q-3.234375 1.390625 -7.0 1.390625zm0.484375 -3.515625q4.234375 0 7.4375 -2.109375q3.203125 -2.125 5.0 -6.125q1.796875 -4.0 1.796875 -9.359375q0 -5.281246 -1.796875 -9.078121q-1.796875 -3.8125 -4.96875 -5.84375q-3.15625 -2.046875 -7.3125 -2.046875q-6.875 0 -10.875 4.640625q-4.0 4.640625 -4.0 12.640621q0 8.0 3.953125 12.640625q3.96875 4.640625 10.765625 4.640625zm46.559937 3.515625q-4.15625 0 -7.4375 -1.515625q-3.28125 -1.515625 -5.171875 -4.75q-1.875 -3.25 -1.875 -8.125l0 -26.406246l4.0 0l0 25.437496q0 6.25 3.0 9.046875q3.0 2.796875 8.4375 2.796875q3.203125 0 5.796875 -1.109375q2.609375 -1.125 4.4375 -3.125q1.84375 -2.0 2.84375 -4.59375q1.0 -2.609375 1.0 -5.5l0 -22.953121l4.0 0l0 39.999996l-3.59375 0l-0.15625 -8.234375q-1.765625 4.234375 -5.765625 6.640625q-4.0 2.390625 -9.515625 2.390625zm49.43811 -41.593746q4.078125 0 7.28125 1.28125q3.203125 1.28125 5.4375 3.6875q2.234375 2.390625 3.4375 5.828125l-3.75 1.765625q-1.28125 -4.328125 -4.453125 -6.6875q-3.15625 -2.359375 -8.03125 -2.359375q-4.40625 0 -7.765625 2.046875q-3.359375 2.03125 -5.203125 5.921875q-1.828125 3.875 -1.828125 9.312496q0 5.359375 1.828125 9.28125q1.84375 3.921875 5.125 5.96875q3.28125 2.03125 7.765625 2.03125q3.359375 0 6.109375 -1.109375q2.765625 -1.125 4.5625 -3.28125q1.796875 -2.171875 2.359375 -5.125l3.6875 1.28125q-1.046875 3.671875 -3.40625 6.3125q-2.359375 2.640625 -5.71875 4.046875q-3.359375 1.390625 -7.515625 1.390625q-5.4375 0 -9.71875 -2.46875q-4.28125 -2.484375 -6.6875 -7.15625q-2.390625 -4.6875 -2.390625 -11.171875q0 -6.484371 2.4375 -11.156246q2.4375 -4.6875 6.71875 -7.15625q4.28125 -2.484375 9.71875 -2.484375zm33.924316 -10.328125l0 40.562496q0 3.765625 1.796875 5.734375q1.796875 1.953125 5.234375 1.953125q2.25 0 3.96875 -0.765625q1.71875 -0.765625 3.078125 -2.203125l1.515625 3.28125q-1.515625 1.515625 -3.84375 2.4375q-2.3125 0.921875 -5.203125 0.921875q-3.109375 0 -5.515625 -1.15625q-2.390625 -1.15625 -3.71875 -3.546875q-1.3125 -2.40625 -1.3125 -6.09375l0 -39.999996l4.0 -1.125zm14.953125 11.125l0 3.4375l-26.953125 0l0 -3.4375l26.953125 0zm33.206177 39.999996l0 -39.999996l3.359375 0l0.46875 8.3125q1.53125 -4.15625 4.890625 -6.625q3.359375 -2.484375 8.078125 -2.484375q1.59375 0 2.875 0.328125q1.28125 0.3125 2.15625 1.03125l-0.953125 3.515625q-0.875 -0.5625 -1.921875 -0.875q-1.03125 -0.328125 -3.125 -0.328125q-3.03125 0 -5.75 1.890625q-2.71875 1.875 -4.40625 5.203125q-1.671875 3.3125 -1.671875 7.625l0 22.406246l-4.0 0zm44.712463 0.796875q-5.515625 0 -9.84375 -2.46875q-4.3125 -2.484375 -6.75 -7.15625q-2.4375 -4.6875 -2.4375 -11.171875q0 -6.484371 2.4375 -11.156246q2.4375 -4.6875 6.640625 -7.15625q4.203125 -2.484375 9.46875 -2.484375q5.453125 0 9.28125 2.40625q3.84375 2.390625 5.921875 6.671875q2.078125 4.28125 2.078125 9.875q0 0.7187462 -0.046875 1.4062462q-0.03125 0.671875 -0.109375 1.234375l-33.203125 0l0 -3.5937462l31.4375 0l-2.0 0.5625q-0.078125 -6.890625 -3.640625 -10.96875q-3.546875 -4.078125 -9.796875 -4.078125q-4.3125 0 -7.59375 2.046875q-3.28125 2.03125 -5.125 5.921875q-1.84375 3.875 -1.84375 9.312496q0 5.359375 1.875 9.28125q1.890625 3.921875 5.28125 5.96875q3.40625 2.03125 7.890625 2.03125q4.640625 0 7.953125 -2.0q3.328125 -2.0 5.171875 -5.515625l3.203125 1.828125q-1.453125 2.890625 -3.859375 4.9375q-2.390625 2.03125 -5.515625 3.15625q-3.109375 1.109375 -6.875 1.109375zm41.76306 0q-6.078125 0 -10.765625 -2.46875q-4.671875 -2.484375 -6.59375 -7.125l3.4375 -2.328125q1.4375 4.0 5.15625 6.203125q3.71875 2.203125 9.078125 2.203125q5.28125 0 8.28125 -2.078125q3.0 -2.078125 3.0 -5.515625q0 -2.328125 -1.484375 -4.046875q-1.46875 -1.71875 -5.546875 -2.59375l-9.359375 -2.0q-5.6875 -1.203125 -8.171875 -3.8749962q-2.46875 -2.6875 -2.46875 -6.53125q0 -3.203125 1.921875 -5.765625q1.921875 -2.5625 5.3125 -4.109375q3.40625 -1.5625 7.96875 -1.5625q6.0 0 9.90625 2.359375q3.921875 2.359375 5.53125 7.078125l-3.359375 2.15625q-1.203125 -4.234375 -4.453125 -6.15625q-3.234375 -1.921875 -7.625 -1.921875q-3.359375 0 -5.890625 1.0q-2.515625 1.0 -3.921875 2.71875q-1.390625 1.71875 -1.390625 3.96875q0 2.3125 1.59375 4.203125q1.609375 1.875 5.6875 2.75l9.59375 2.0781212q5.6875 1.203125 7.921875 3.640625q2.234375 2.4375 2.234375 6.046875q0 3.515625 -1.921875 6.203125q-1.90625 2.671875 -5.4375 4.078125q-3.515625 1.390625 -8.234375 1.390625zm43.19684 -41.593746q5.609375 0 9.875 2.484375q4.28125 2.46875 6.71875 7.15625q2.453125 4.671875 2.453125 11.156246q0 6.484375 -2.453125 11.171875q-2.4375 4.671875 -6.71875 7.15625q-4.265625 2.46875 -9.875 2.46875q-5.59375 0 -9.875 -2.46875q-4.28125 -2.484375 -6.71875 -7.15625q-2.4375 -4.6875 -2.4375 -11.171875q0 -6.484371 2.4375 -11.156246q2.4375 -4.6875 6.71875 -7.15625q4.28125 -2.484375 9.875 -2.484375zm0 3.4375q-4.5625 0 -7.921875 2.078125q-3.359375 2.078125 -5.234375 5.96875q-1.875 3.875 -1.875 9.312496q0 5.359375 1.875 9.28125q1.875 3.921875 5.234375 6.0q3.359375 2.078125 7.921875 2.078125q4.5625 0 7.921875 -2.078125q3.359375 -2.078125 5.234375 -6.0q1.890625 -3.921875 1.890625 -9.28125q0 -5.437496 -1.890625 -9.312496q-1.875 -3.890625 -5.234375 -5.96875q-3.359375 -2.078125 -7.921875 -2.078125zm44.565613 38.156246q-4.15625 0 -7.4375 -1.515625q-3.28125 -1.515625 -5.171875 -4.75q-1.875 -3.25 -1.875 -8.125l0 -26.406246l4.0 0l0 25.437496q0 6.25 3.0 9.046875q3.0 2.796875 8.4375 2.796875q3.203125 0 5.796875 -1.109375q2.609375 -1.125 4.4375 -3.125q1.84375 -2.0 2.84375 -4.59375q1.0 -2.609375 1.0 -5.5l0 -22.953121l4.0 0l0 39.999996l-3.59375 0l-0.15625 -8.234375q-1.765625 4.234375 -5.765625 6.640625q-4.0 2.390625 -9.515625 2.390625zm33.2818 -0.796875l0 -39.999996l3.359375 0l0.46875 8.3125q1.53125 -4.15625 4.890625 -6.625q3.359375 -2.484375 8.078125 -2.484375q1.59375 0 2.875 0.328125q1.28125 0.3125 2.15625 1.03125l-0.953125 3.515625q-0.875 -0.5625 -1.921875 -0.875q-1.03125 -0.328125 -3.125 -0.328125q-3.03125 0 -5.75 1.890625q-2.71875 1.875 -4.40625 5.203125q-1.671875 3.3125 -1.671875 7.625l0 22.406246l-4.0 0zm44.556213 -40.79687q4.078125 0 7.28125 1.28125q3.203125 1.28125 5.4375 3.6875q2.234375 2.390625 3.4375 5.828125l-3.75 1.765625q-1.28125 -4.328125 -4.453125 -6.6875q-3.15625 -2.359375 -8.03125 -2.359375q-4.40625 0 -7.765625 2.046875q-3.359375 2.03125 -5.203125 5.921875q-1.828125 3.875 -1.828125 9.312496q0 5.359375 1.828125 9.28125q1.84375 3.921875 5.125 5.96875q3.28125 2.03125 7.765625 2.03125q3.359375 0 6.109375 -1.109375q2.765625 -1.125 4.5625 -3.28125q1.796875 -2.171875 2.359375 -5.125l3.6875 1.28125q-1.046875 3.671875 -3.40625 6.3125q-2.359375 2.640625 -5.71875 4.046875q-3.359375 1.390625 -7.515625 1.390625q-5.4375 0 -9.71875 -2.46875q-4.28125 -2.484375 -6.6875 -7.15625q-2.390625 -4.6875 -2.390625 -11.171875q0 -6.484371 2.4375 -11.156246q2.4375 -4.6875 6.71875 -7.15625q4.28125 -2.484375 9.71875 -2.484375zm43.59619 41.593746q-5.515625 0 -9.84375 -2.46875q-4.3125 -2.484375 -6.75 -7.15625q-2.4375 -4.6875 -2.4375 -11.171875q0 -6.484371 2.4375 -11.156246q2.4375 -4.6875 6.640625 -7.15625q4.203125 -2.484375 9.46875 -2.484375q5.453125 0 9.28125 2.40625q3.84375 2.390625 5.921875 6.671875q2.078125 4.28125 2.078125 9.875q0 0.7187462 -0.046875 1.4062462q-0.03125 0.671875 -0.109375 1.234375l-33.203125 0l0 -3.5937462l31.4375 0l-2.0 0.5625q-0.078125 -6.890625 -3.640625 -10.96875q-3.546875 -4.078125 -9.796875 -4.078125q-4.3125 0 -7.59375 2.046875q-3.28125 2.03125 -5.125 5.921875q-1.84375 3.875 -1.84375 9.312496q0 5.359375 1.875 9.28125q1.890625 3.921875 5.28125 5.96875q3.40625 2.03125 7.890625 2.03125q4.640625 0 7.953125 -2.0q3.328125 -2.0 5.171875 -5.515625l3.203125 1.828125q-1.453125 2.890625 -3.859375 4.9375q-2.390625 2.03125 -5.515625 3.15625q-3.109375 1.109375 -6.875 1.109375zm41.76306 0q-6.078125 0 -10.765625 -2.46875q-4.671875 -2.484375 -6.59375 -7.125l3.4375 -2.328125q1.4375 4.0 5.15625 6.203125q3.71875 2.203125 9.078125 2.203125q5.28125 0 8.28125 -2.078125q3.0 -2.078125 3.0 -5.515625q0 -2.328125 -1.484375 -4.046875q-1.46875 -1.71875 -5.546875 -2.59375l-9.359375 -2.0q-5.6875 -1.203125 -8.171875 -3.8749962q-2.46875 -2.6875 -2.46875 -6.53125q0 -3.203125 1.921875 -5.765625q1.921875 -2.5625 5.3125 -4.109375q3.40625 -1.5625 7.96875 -1.5625q6.0 0 9.90625 2.359375q3.921875 2.359375 5.53125 7.078125l-3.359375 2.15625q-1.203125 -4.234375 -4.453125 -6.15625q-3.234375 -1.921875 -7.625 -1.921875q-3.359375 0 -5.890625 1.0q-2.515625 1.0 -3.921875 2.71875q-1.390625 1.71875 -1.390625 3.96875q0 2.3125 1.59375 4.203125q1.609375 1.875 5.6875 2.75l9.59375 2.0781212q5.6875 1.203125 7.921875 3.640625q2.234375 2.4375 2.234375 6.046875q0 3.515625 -1.921875 6.203125q-1.90625 2.671875 -5.4375 4.078125q-3.515625 1.390625 -8.234375 1.390625z" fill-rule="nonzero"/></g></svg>