<?xml version="1.0" encoding="utf-8"?>
<!-- Generator: Adobe Illustrator 21.1.0, SVG Export Plug-In . SVG Version: 6.00 Build 0)  -->
<svg version="1.1" id="Layer_1" xmlns="http://www.w3.org/2000/svg" xmlns:xlink="http://www.w3.org/1999/xlink" x="0px" y="0px"
	 viewBox="0 0 99.2 212.6" style="enable-background:new 0 0 99.2 212.6;" xml:space="preserve">
<style type="text/css">
	.st0{fill:#231F20;}
</style>
<g>
	<g>
		<g>
			<g>
				<path class="st0" d="M27.7,154.5v12.7l6.6,2.2v6.9L1.2,164.1v-6.3l33.2-12.4v6.9L27.7,154.5z M22.1,156.4l-13,4.4v0.1l13,4.4
					V156.4z"/>
				<path class="st0" d="M20.8,120.7h13.5v6.1h-12c-4.3,0-5.7,1.5-5.7,4.4c0,3.1,2.1,5.2,6.2,5.2h11.5v6.1H11.6v-6.1h2.9v-0.1
					c-2.2-1.9-3.3-4.5-3.3-7.3C11.2,124.1,13.8,120.7,20.8,120.7z"/>
				<path class="st0" d="M0,93.2h34.4V99h-2.8v0.1c2,1.6,3.1,4,3.1,7c0,6.3-4.7,10.9-11.7,10.9c-6.9,0-11.8-4.6-11.8-10.7
					c0-2.8,1-5.2,2.9-6.9v-0.1H0V93.2z M23.1,99c-3.6,0-6.4,2.5-6.4,6c0,3.3,2.5,5.8,6.4,5.8c3.7,0,6.2-2.4,6.2-5.8
					C29.3,101.6,26.8,99,23.1,99z"/>
				<path class="st0" d="M11.3,73.5h6.6c0,0.6,0,1.3,0,1.6c0,3.8,2.6,5.8,5.9,5.8h10.6V87H11.6v-6.1h3.4v0c-2.4-1.7-3.7-4.2-3.7-6.9
					C11.2,73.7,11.2,73.6,11.3,73.5z"/>
				<path class="st0" d="M24.9,48.9v16c2.7-0.7,4.4-2.9,4.4-5.8c0-2.4-1-4.2-2.6-5.5l3.7-4c2.5,2,4.3,5.3,4.3,9.9
					c0,6.7-4.7,11.7-11.8,11.7c-6.9,0-11.7-4.8-11.7-11.3c0-6.7,4.9-11.2,11.5-11.2C23.5,48.8,24.6,48.8,24.9,48.9z M20.5,64.9v-10
					c-2.4,0.6-4,2.2-4,4.9C16.6,62.3,17.9,64.2,20.5,64.9z"/>
				<path class="st0" d="M11.6,13.1l22.8,7.8v5.3l-14.1,4v0.1l14.1,4v5.2l-22.8,7.8v-6.1l13.9-4.4v-0.1l-13.9-4v-4.9l13.9-4v-0.1
					l-13.9-4.4V13.1z"/>
			</g>
		</g>
		<g>
			<path class="st0" d="M67.3,42.2v-9.2h5.9V58h-5.9v-9.2H40v-6.5H67.3z"/>
			<path class="st0" d="M51.4,57.1c6.8,0,11.8,4.9,11.8,12.1c0,7.1-4.8,12.1-11.8,12.1c-7,0-11.8-5-11.8-12.1
				C39.7,62,44.6,57.1,51.4,57.1z M51.4,75.1c3.7,0,6.3-2.5,6.3-5.9c0-3.5-2.7-5.9-6.3-5.9c-3.5,0-6.3,2.5-6.3,5.9
				C45.1,72.5,47.7,75.1,51.4,75.1z"/>
			<path class="st0" d="M49.1,95.6l-3.6-3.2H40v-6.1h34.4v6.1H53.6v0l9.2,8.2v7.1l-9.1-8L40,107.9v-6.8L49.1,95.6L49.1,95.6z"/>
			<path class="st0" d="M49.5,131.3v-16c-2.7,0.7-4.4,2.9-4.4,5.8c0,2.4,1,4.2,2.6,5.5l-3.7,4c-2.5-2-4.3-5.3-4.3-9.9
				c0-6.7,4.7-11.7,11.8-11.7c6.9,0,11.7,4.8,11.7,11.3c0,6.7-4.9,11.2-11.5,11.2C50.9,131.4,49.8,131.4,49.5,131.3z M53.9,115.3v10
				c2.4-0.6,4-2.2,4-4.9C57.8,118,56.5,116,53.9,115.3z"/>
			<path class="st0" d="M74.4,136.6v6.1H40v-6.1H74.4z"/>
			<path class="st0" d="M49.5,170.3v-16c-2.7,0.7-4.4,2.9-4.4,5.8c0,2.4,1,4.2,2.6,5.5l-3.7,4c-2.5-2-4.3-5.3-4.3-9.9
				c0-6.7,4.7-11.7,11.8-11.7c6.9,0,11.7,4.8,11.7,11.3c0,6.7-4.9,11.2-11.5,11.2C50.9,170.4,49.8,170.4,49.5,170.3z M53.9,154.3v10
				c2.4-0.6,4-2.2,4-4.9C57.8,157,56.5,155,53.9,154.3z"/>
			<path class="st0" d="M62.8,197.3l-32-12.3v-6.3l10.6,4l21.4-9.1v6.4l-14.1,5.6v0l14.1,5.2V197.3z"/>
		</g>
	</g>
	<g>
		<path class="st0" d="M44.2,2.4c0,1.2-0.8,1.8-2.2,1.8h-1.2v2.1h-1.2V0.5h2.5C43.4,0.5,44.2,1.2,44.2,2.4z M43,2.4
			c0-0.6-0.3-0.9-1.1-0.9h-1v1.8h1C42.6,3.3,43,3,43,2.4z"/>
		<path class="st0" d="M48,2L47.9,3c-0.1-0.1-0.3-0.1-0.6-0.1c-0.5,0-1.1,0.4-1.1,1.2v2.3H45V1.9h1.1l0.1,0.9c0.2-0.6,0.7-1,1.4-1
			C47.7,1.9,47.9,1.9,48,2z"/>
		<path class="st0" d="M52.8,4.2c0,1.4-0.8,2.3-2.3,2.3c-1.4,0-2.3-0.9-2.3-2.3s0.8-2.3,2.3-2.3C52,1.9,52.8,2.7,52.8,4.2z
			 M49.5,4.2c0,0.9,0.4,1.4,1.1,1.4c0.7,0,1.1-0.5,1.1-1.4s-0.4-1.4-1.1-1.4C49.9,2.8,49.5,3.2,49.5,4.2z"/>
		<path class="st0" d="M58,0v6.4h-1.1l-0.1-0.8c-0.3,0.5-0.8,0.9-1.5,0.9c-1.2,0-1.9-0.9-1.9-2.3c0-1.5,0.7-2.3,1.9-2.3
			c0.7,0,1.1,0.3,1.4,0.8V0H58z M56.8,4.2L56.8,4.2c0-0.9-0.4-1.4-1-1.4s-1,0.5-1,1.4s0.4,1.4,1,1.4C56.4,5.5,56.8,5.1,56.8,4.2z"/>
		<path class="st0" d="M63.3,1.9v4.4h-1.1l0-0.8c-0.3,0.6-0.8,0.9-1.6,0.9c-0.9,0-1.6-0.5-1.6-1.6V1.9h1.2v2.6
			c0,0.7,0.3,0.9,0.8,0.9c0.6,0,1-0.4,1-1.2V1.9H63.3z"/>
		<path class="st0" d="M68.5,3.2l-1.1,0.4C67.3,3,67,2.8,66.5,2.8c-0.7,0-1.1,0.5-1.1,1.4c0,1,0.4,1.4,1.1,1.4
			c0.5,0,0.8-0.3,0.9-0.8l1.1,0.4c-0.2,0.8-0.9,1.3-2,1.3c-1.5,0-2.3-0.9-2.3-2.3s0.8-2.3,2.3-2.3C67.7,1.9,68.3,2.4,68.5,3.2z"/>
		<path class="st0" d="M72.4,6.1c-0.3,0.2-0.7,0.4-1.2,0.4c-0.9,0-1.5-0.4-1.5-1.3V2.9h-0.8V1.9h0.8v-1l1.2-0.3v1.4h1.4v0.9h-1.4
			v2.1c0,0.4,0.2,0.6,0.6,0.6c0.3,0,0.5-0.1,0.7-0.2L72.4,6.1z"/>
		<path class="st0" d="M43.9,15v1h-4.3v-5.9h1.2V15H43.9z"/>
		<path class="st0" d="M48.7,14.2h-3.1c0.1,0.6,0.5,0.9,1.1,0.9c0.5,0,0.9-0.2,1-0.6l1,0.4c-0.3,0.7-1,1.1-2,1.1
			c-1.5,0-2.3-0.9-2.3-2.3s0.8-2.3,2.2-2.3c1.4,0,2.1,0.8,2.1,2.3C48.7,13.9,48.7,14.1,48.7,14.2z M45.5,13.4h2.1
			c-0.1-0.7-0.5-1-1-1C46,12.3,45.6,12.7,45.5,13.4z"/>
		<path class="st0" d="M53.9,15.2l-0.1,0.7c-0.2,0.1-0.4,0.1-0.6,0.1c-0.5,0-0.9-0.2-1-0.7c-0.3,0.4-0.8,0.7-1.6,0.7
			c-0.8,0-1.4-0.4-1.4-1.1c0-0.7,0.5-1.2,1.7-1.4l1.1-0.2v-0.2c0-0.5-0.3-0.8-0.8-0.8c-0.5,0-0.9,0.2-1,0.8l-1-0.4
			c0.2-0.8,0.9-1.2,1.9-1.2c1.2,0,2,0.5,2,1.6v1.8c0,0.2,0.1,0.3,0.3,0.3C53.7,15.2,53.8,15.2,53.9,15.2z M52.1,14.5v-0.5l-1,0.2
			c-0.4,0.1-0.6,0.2-0.6,0.5c0,0.3,0.2,0.4,0.5,0.4C51.5,15.2,52.1,15,52.1,14.5z"/>
		<path class="st0" d="M58.8,9.6V16h-1.1l-0.1-0.8c-0.3,0.5-0.8,0.9-1.5,0.9c-1.2,0-1.9-0.9-1.9-2.3c0-1.5,0.7-2.3,1.9-2.3
			c0.7,0,1.1,0.3,1.4,0.8V9.6H58.8z M57.5,13.8L57.5,13.8c0-0.9-0.4-1.4-1-1.4s-1,0.5-1,1.4c0,0.9,0.4,1.4,1,1.4
			C57.1,15.1,57.5,14.7,57.5,13.8z"/>
		<path class="st0" d="M64,14.2h-3.1c0.1,0.6,0.5,0.9,1.1,0.9c0.5,0,0.9-0.2,1-0.6l1,0.4c-0.3,0.7-1,1.1-2,1.1
			c-1.5,0-2.3-0.9-2.3-2.3s0.8-2.3,2.2-2.3c1.4,0,2.1,0.8,2.1,2.3C64,13.9,64,14.1,64,14.2z M60.8,13.4h2.1c-0.1-0.7-0.5-1-1-1
			C61.3,12.3,60.9,12.7,60.8,13.4z"/>
		<path class="st0" d="M67.9,11.5l-0.2,1.1c-0.1-0.1-0.3-0.1-0.6-0.1c-0.5,0-1.1,0.4-1.1,1.2V16h-1.2v-4.4h1.1l0.1,0.9
			c0.2-0.6,0.7-1,1.4-1C67.6,11.4,67.8,11.5,67.9,11.5z"/>
		<path class="st0" d="M68,15.2l0.7-0.7c0.2,0.5,0.7,0.7,1.3,0.7c0.5,0,0.8-0.2,0.8-0.4c0-0.2-0.2-0.3-0.9-0.5
			c-1.4-0.3-1.8-0.7-1.8-1.4c0-0.7,0.7-1.4,2-1.4c1,0,1.6,0.3,2,0.9l-0.8,0.7c-0.2-0.5-0.6-0.7-1.2-0.7c-0.5,0-0.8,0.2-0.8,0.4
			c0,0.2,0.2,0.4,1,0.5c1.3,0.3,1.8,0.6,1.8,1.4c0,0.8-0.7,1.4-2,1.4C69.1,16.1,68.4,15.8,68,15.2z"/>
		<path class="st0" d="M77.1,13.1V16h-1.2v-2.6c0-0.8-0.3-1-0.8-1c-0.5,0-1,0.3-1,1.2V16h-1.2V9.6h1.2v2.7c0.3-0.6,0.8-0.8,1.4-0.8
			C76.4,11.4,77.1,12,77.1,13.1z"/>
		<path class="st0" d="M78.1,10.2c0-0.4,0.2-0.7,0.8-0.7s0.8,0.2,0.8,0.7c0,0.4-0.2,0.6-0.8,0.6S78.1,10.7,78.1,10.2z M79.4,16h-1.2
			v-4.4h1.2V16z"/>
		<path class="st0" d="M85,13.7c0,1.5-0.7,2.3-1.9,2.3c-0.7,0-1.1-0.3-1.4-0.8v2.6h-1.2v-6.3h1.1l0,0.9c0.2-0.6,0.8-1,1.5-1
			C84.3,11.4,85,12.3,85,13.7z M83.8,13.7c0-0.9-0.4-1.4-1-1.4c-0.6,0-1,0.4-1,1.2v0.4c0,0.7,0.4,1.2,1,1.2
			C83.4,15.1,83.8,14.7,83.8,13.7z"/>
		<path class="st0" d="M42.1,25.6c-1.7,0-2.8-1.1-2.8-3c0-1.9,1.1-3,2.8-3c1.2,0,2.1,0.5,2.4,1.5l-1.1,0.5c-0.2-0.7-0.6-1-1.3-1
			c-1,0-1.6,0.7-1.6,2c0,1.3,0.6,2,1.6,2c0.7,0,1.2-0.3,1.4-1l1.1,0.3C44.3,25.1,43.3,25.6,42.1,25.6z"/>
		<path class="st0" d="M49.7,23.3c0,1.4-0.8,2.3-2.3,2.3c-1.4,0-2.3-0.9-2.3-2.3c0-1.4,0.8-2.3,2.3-2.3C48.8,21,49.7,21.9,49.7,23.3
			z M46.3,23.3c0,0.9,0.4,1.4,1.1,1.4s1.1-0.5,1.1-1.4c0-0.9-0.4-1.4-1.1-1.4S46.3,22.4,46.3,23.3z"/>
		<path class="st0" d="M54.9,24.8l-0.1,0.7c-0.2,0.1-0.4,0.1-0.6,0.1c-0.5,0-0.9-0.2-1-0.7c-0.3,0.4-0.8,0.7-1.6,0.7
			c-0.8,0-1.4-0.4-1.4-1.1c0-0.7,0.5-1.2,1.7-1.4l1.1-0.2v-0.2c0-0.5-0.3-0.8-0.8-0.8c-0.5,0-0.9,0.2-1,0.8l-1-0.4
			c0.2-0.8,0.9-1.2,1.9-1.2c1.2,0,2,0.5,2,1.6v1.8c0,0.2,0.1,0.3,0.3,0.3C54.7,24.8,54.8,24.8,54.9,24.8z M53.1,24.1v-0.5l-1,0.2
			c-0.4,0.1-0.6,0.2-0.6,0.5c0,0.3,0.2,0.4,0.5,0.4C52.5,24.8,53.1,24.6,53.1,24.1z"/>
		<path class="st0" d="M59.5,22.3l-1.1,0.4c-0.1-0.5-0.4-0.8-0.9-0.8c-0.7,0-1.1,0.5-1.1,1.4c0,1,0.4,1.4,1.1,1.4
			c0.5,0,0.8-0.3,0.9-0.8l1.1,0.4c-0.2,0.8-0.9,1.3-2,1.3c-1.5,0-2.3-0.9-2.3-2.3c0-1.5,0.8-2.3,2.3-2.3
			C58.7,21,59.3,21.6,59.5,22.3z"/>
		<path class="st0" d="M64.6,22.6v2.9h-1.2V23c0-0.8-0.3-1-0.8-1c-0.5,0-1,0.3-1,1.2v2.3h-1.2v-6.4h1.2v2.7c0.3-0.6,0.8-0.8,1.4-0.8
			C63.9,21,64.6,21.6,64.6,22.6z"/>
	</g>
</g>
</svg>
